<svg width="32" height="32" viewBox="0 0 32 32" fill="none" xmlns="http://www.w3.org/2000/svg">
<g clip-path="url(#clip0_185_547)">
<path fill-rule="evenodd" clip-rule="evenodd" d="M15.1627 7.39955C13.0865 7.46143 11.1777 8.05143 10.1727 8.9458V13.7646C11.369 12.9639 13.1815 12.4658 15.1627 12.4121V11.4827C14.6815 11.3246 14.3327 10.8714 14.3327 10.3377V9.4633C14.3327 8.93018 14.6815 8.47705 15.1627 8.31893V7.39955ZM22.0346 19.3464V29.8664H24.5359V16.8446L22.0346 19.3464ZM16.5621 21.5858V29.8664H19.0634V22.3171L18.4434 22.937C18.2971 23.0839 18.0596 23.0839 17.9127 22.937L16.5621 21.5858ZM11.0896 24.6333V29.8664H13.5909V22.132L11.0896 24.6333ZM8.11836 29.8664V27.6046L5.85648 29.8664H8.11836ZM30.709 30.3364C30.9159 30.3364 31.084 30.5046 31.084 30.7114C31.084 30.9183 30.9159 31.0864 30.709 31.0864H1.33398C1.12711 31.0864 0.958984 30.9183 0.958984 30.7114V1.33643C0.958984 1.12955 1.12711 0.961426 1.33398 0.961426C1.54086 0.961426 1.70898 1.12955 1.70898 1.33643V29.8064L15.0827 16.4327C15.229 16.2864 15.4665 16.2864 15.6127 16.4327L18.1765 18.9964L26.6265 10.5464L25.2334 9.1533C25.0871 9.00705 25.0871 8.76955 25.2334 8.6233C25.2865 8.57018 25.3509 8.53643 25.419 8.52205L30.0165 7.2258C30.2152 7.17018 30.4221 7.2858 30.4777 7.48518C30.4971 7.55518 30.4959 7.62643 30.4765 7.69143L29.1752 12.3064C29.1196 12.5052 28.9127 12.6214 28.714 12.5658C28.6496 12.5477 28.5946 12.5139 28.5502 12.4702L27.1571 11.0777L18.4421 19.7914C18.2959 19.9377 18.0584 19.9377 17.9121 19.7914L15.3484 17.2277L2.23961 30.3364H30.709ZM9.79773 5.8758C10.9465 5.8758 11.8802 4.94143 11.8802 3.79268C11.8802 2.64455 10.9459 1.71018 9.79773 1.71018C8.64961 1.71018 7.71523 2.64455 7.71523 3.79268C7.71461 4.94143 8.64898 5.8758 9.79773 5.8758ZM9.79773 8.27955C9.20086 7.78893 8.39086 7.3908 7.44836 7.11018C7.89586 6.79893 8.43023 6.62705 8.98148 6.62705H10.6134C11.1652 6.62705 11.699 6.79893 12.1471 7.11018C11.2046 7.3908 10.394 7.78893 9.79773 8.27955ZM15.0827 9.4633C15.0827 9.21268 15.2871 9.0083 15.5377 9.0083C15.789 9.0083 15.9927 9.21268 15.9927 9.4633V10.3377C15.9927 10.5889 15.789 10.7927 15.5377 10.7927C15.2871 10.7927 15.0827 10.5889 15.0827 10.3377V9.4633ZM4.51273 10.3377V9.4633C4.51273 9.21268 4.30836 9.0083 4.05773 9.0083C3.80711 9.0083 3.60273 9.21268 3.60273 9.4633V10.3377C3.60273 10.5889 3.80711 10.7927 4.05773 10.7927C4.30836 10.7927 4.51273 10.5889 4.51273 10.3377ZM9.42273 13.7639V8.94518C8.41773 8.0508 6.50898 7.46143 4.43273 7.39955V8.31893C4.91398 8.47705 5.26273 8.93018 5.26273 9.4633V10.3377C5.26273 10.8714 4.91398 11.3246 4.43273 11.4827V12.4121C6.41336 12.4658 8.22648 12.9633 9.42273 13.7639Z" fill="#0F0021"/>
</g>
<defs>
<clipPath id="clip0_185_547">
<rect width="32" height="32" fill="white"/>
</clipPath>
</defs>
</svg>
