<svg width="50" height="50" viewBox="0 0 50 50" fill="none" xmlns="http://www.w3.org/2000/svg">
<path d="M20.8105 38.1943C20.7295 38.6084 20.6865 39.0371 20.6865 39.4756C20.6865 39.9131 20.7295 40.3418 20.8105 40.7559C20.917 41.3027 21.0918 41.8262 21.3252 42.3164H11.2256C5.79102 42.3164 1.36914 37.8955 1.36914 32.4609C1.36914 27.0273 5.79102 22.6074 11.2256 22.6074H16.2461V24.168V26.7266V28.2881H11.2256C8.92383 28.2881 7.05176 30.1592 7.05176 32.4609C7.05176 34.7617 8.92383 36.6338 11.2256 36.6338H21.3252C21.0918 37.124 20.918 37.6465 20.8105 38.1943ZM35.7637 22.6074H32.4658V24.168V26.7266V28.2881H35.7637C41.1982 28.2881 45.6191 23.8672 45.6191 18.4346C45.6191 13 41.1982 8.57812 35.7637 8.57812H17.9355C17.5049 8.57812 17.1553 8.92773 17.1553 9.35937V13.4814C17.1553 13.9121 17.5049 14.2617 17.9355 14.2617H35.7637C38.0645 14.2617 39.9365 16.1338 39.9365 18.4346C39.9365 20.7354 38.0645 22.6074 35.7637 22.6074ZM49.6738 38.8789L42.4551 32.79C42.2227 32.5938 41.8984 32.5508 41.623 32.6787C41.3477 32.8066 41.1709 33.082 41.1709 33.3857V36.6338H33.3389C33.5723 37.124 33.7461 37.6465 33.8535 38.1943C33.9346 38.6084 33.9775 39.0371 33.9775 39.4756C33.9775 39.9131 33.9346 40.3418 33.8535 40.7559C33.7471 41.3027 33.5723 41.8262 33.3389 42.3164H41.1709V45.5664C41.1709 45.8701 41.3477 46.1465 41.623 46.2744C41.7275 46.3232 41.8398 46.3477 41.9521 46.3477C42.1328 46.3477 42.3115 46.2842 42.4551 46.1631L49.6738 40.0713C49.8496 39.9229 49.9512 39.7051 49.9512 39.4746C49.9512 39.2451 49.8496 39.0264 49.6738 38.8789ZM7.11777 13.0682C7.33174 13.1589 7.56689 13.2091 7.81348 13.2091C8.06035 13.2091 8.2957 13.1589 8.50996 13.0682C9.15283 12.7962 9.60488 12.1599 9.60488 11.4201C9.60488 10.8168 9.3042 10.2833 8.8458 9.9585C8.55361 9.75117 8.19785 9.62803 7.81338 9.62803C7.31191 9.62803 6.85869 9.83662 6.5335 10.1708C6.36865 10.3402 6.2376 10.5422 6.14961 10.7659C6.06973 10.9688 6.02432 11.1891 6.02432 11.42C6.02432 11.6411 6.0666 11.8521 6.14033 12.0479C6.31318 12.5067 6.66777 12.8774 7.11777 13.0682ZM1.37988 15.1055L2.21191 13.7871C2.2002 13.7607 2.18945 13.7334 2.17871 13.7061L0.65625 13.3604C0.300781 13.2803 0.0488281 12.9639 0.0488281 12.5996V10.2373C0.0488281 9.87305 0.301758 9.55664 0.657227 9.47656L2.17773 9.13379C2.18848 9.10547 2.2002 9.07812 2.21191 9.0498L1.37988 7.73144C1.18457 7.42285 1.22949 7.02051 1.4873 6.7627L3.15918 5.0918C3.41699 4.83301 3.81934 4.78906 4.12793 4.9834L5.44727 5.81641C5.47461 5.80566 5.50195 5.79395 5.5293 5.78223L5.87207 4.26172C5.95215 3.90527 6.26855 3.65234 6.63379 3.65234H8.99609C9.36035 3.65234 9.67676 3.90527 9.75684 4.26172L10.0996 5.78223C10.1279 5.79395 10.1553 5.80566 10.1826 5.81641L11.502 4.9834C11.8105 4.78809 12.2129 4.83301 12.4707 5.0918L14.1416 6.7627C14.3994 7.02051 14.4443 7.42285 14.25 7.73144L13.417 9.0498C13.4287 9.07812 13.4404 9.10547 13.4521 9.13379L14.9717 9.47656C15.3281 9.55664 15.5811 9.87305 15.5811 10.2373V12.5996C15.5811 12.9639 15.3281 13.2803 14.9727 13.3604L13.4512 13.7061C13.4404 13.7334 13.4287 13.7598 13.417 13.7871L14.25 15.1055C14.4443 15.4141 14.3994 15.8164 14.1416 16.0742L12.4707 17.7461C12.2129 18.0039 11.8105 18.0488 11.502 17.8535L10.1836 17.0215C10.1553 17.0332 10.1279 17.0449 10.0996 17.0557L9.75684 18.5762C9.67676 18.9316 9.36035 19.1846 8.99609 19.1846H6.63379C6.26855 19.1846 5.95215 18.9316 5.87207 18.5762L5.5293 17.0557C5.50195 17.0449 5.47363 17.0332 5.44629 17.0215L4.12793 17.8535C3.81934 18.0488 3.41699 18.0039 3.15918 17.7461L1.4873 16.0742C1.22949 15.8164 1.18457 15.4141 1.37988 15.1055ZM4.46387 11.4199C4.46387 13.2666 5.96582 14.7695 7.81348 14.7695C8.96875 14.7695 9.98936 14.1825 10.5925 13.2915C10.9543 12.7568 11.1658 12.1126 11.1658 11.42C11.1658 9.57148 9.66191 8.06748 7.81328 8.06748C6.66582 8.06748 5.65156 8.64814 5.04766 9.53105C4.67959 10.0693 4.46387 10.7198 4.46387 11.4199ZM32.416 39.4756C32.416 42.2793 30.1357 44.5596 27.332 44.5596C24.5283 44.5596 22.2471 42.2793 22.2471 39.4756C22.2471 36.6709 24.5283 34.3906 27.332 34.3906C30.1357 34.3906 32.416 36.6709 32.416 39.4756ZM30.2695 36.8701C29.9248 36.6113 29.4355 36.6816 29.1777 37.0254L26.7061 40.3203L25.3711 39.1709C25.0449 38.8896 24.5518 38.9268 24.2705 39.2529C23.9893 39.5801 24.0264 40.0723 24.3525 40.3535L26.3193 42.0479C26.4619 42.1699 26.6426 42.2363 26.8291 42.2363C26.8564 42.2363 26.8848 42.2354 26.9131 42.2314C27.1279 42.209 27.3232 42.0967 27.4531 41.9248L30.4258 37.9629C30.6846 37.6182 30.6143 37.1289 30.2695 36.8701ZM30.9053 21.9668H17.8076V28.9287H30.9053V21.9668Z" fill="white"/>
</svg>
